<svg xmlns="http://www.w3.org/2000/svg" viewBox="0 0 44 44" fill="none">
  <rect width="44" height="44" rx="12" fill="#070c1a"/>
  <defs>
    <linearGradient id="wl" x1="5" y1="0" x2="39" y2="0" gradientUnits="userSpaceOnUse">
      <stop offset="0%" stop-color="#4f8ef7"/>
      <stop offset="60%" stop-color="#a855f7"/>
      <stop offset="100%" stop-color="#ec4899"/>
    </linearGradient>
    <linearGradient id="wf" x1="0" y1="0" x2="0" y2="1">
      <stop offset="0%" stop-color="#a855f7" stop-opacity="0.35"/>
      <stop offset="100%" stop-color="#a855f7" stop-opacity="0"/>
    </linearGradient>
  </defs>
  <path d="M5,30 C10,30 10,18 16,18 C22,18 22,26 27,24 C32,22 34,15 39,14 L39,36 L5,36 Z" fill="url(#wf)"/>
  <path d="M5,30 C10,30 10,18 16,18 C22,18 22,26 27,24 C32,22 34,15 39,14" fill="none" stroke="url(#wl)" stroke-width="2.5" stroke-linecap="round"/>
  <circle cx="39" cy="14" r="3" fill="#a855f7"/>
  <circle cx="39" cy="14" r="5.5" fill="#a855f7" opacity="0.15"/>
</svg>
